<svg width="110" height="110" viewBox="0 0 110 110" fill="none" xmlns="http://www.w3.org/2000/svg">
<mask id="mask0_11_2125" style="mask-type:alpha" maskUnits="userSpaceOnUse" x="0" y="0" width="110" height="110">
<rect width="110" height="110" rx="28" fill="#E9F4EC"/>
</mask>
<g mask="url(#mask0_11_2125)">
<path d="M55 121C35.9643 120.971 17.6819 113.574 4 100.366C8.15391 90.2744 15.2203 81.6428 24.3013 75.5681C33.3822 69.4935 44.0677 66.2501 55 66.2501C65.9323 66.2501 76.6178 69.4935 85.6988 75.5681C94.7797 81.6428 101.846 90.2744 106 100.366C92.3181 113.574 74.0357 120.971 55 121ZM36.6216 35.3411C36.6216 31.7136 37.6995 28.1675 39.7189 25.1513C41.7384 22.1352 44.6087 19.7843 47.9669 18.3961C51.3251 17.0079 55.0204 16.6447 58.5855 17.3524C62.1505 18.0601 65.4252 19.8069 67.9955 22.372C70.5657 24.937 72.3161 28.2051 73.0252 31.7629C73.7344 35.3207 73.3704 39.0085 71.9794 42.3599C70.5884 45.7113 68.2328 48.5758 65.2105 50.5911C62.1882 52.6065 58.6349 53.6822 55 53.6822C50.1258 53.6822 45.4511 51.7498 42.0045 48.3102C38.5579 44.8706 36.6216 40.2055 36.6216 35.3411Z" fill="#E9F4EC"/>
</g>
</svg>
