<svg width="60" height="60" viewBox="0 0 60 60" fill="none" xmlns="http://www.w3.org/2000/svg">
    <path
        d="M28.5938 26.25C28.5938 20.0628 28.5938 16.9692 30.5159 15.0471C32.438 13.125 35.5316 13.125 41.7188 13.125H47.3438C47.3438 19.3122 47.3438 22.4058 45.4216 24.3279C43.4995 26.25 40.4059 26.25 34.2188 26.25H28.5938Z"
        fill="#30C182" />
    <path
        d="M13.125 41.7188C13.125 35.5316 13.125 32.438 15.0471 30.5159C16.9692 28.5938 20.0628 28.5938 26.25 28.5938V34.2188C26.25 40.4059 26.25 43.4995 24.3279 45.4216C22.4058 47.3438 19.3122 47.3438 13.125 47.3438V41.7188Z"
        fill="#30C182" />
    <path
        d="M13.125 19.1827C13.125 18.7809 13.125 18.58 13.1353 18.4104C13.307 15.5712 15.5712 13.307 18.4104 13.1353C18.58 13.125 18.7809 13.125 19.1827 13.125C19.6514 13.125 19.8858 13.125 20.0837 13.137C23.3961 13.3373 26.0377 15.9789 26.238 19.2913C26.25 19.4892 26.25 19.7236 26.25 20.1923V26.25H20.1923C19.7236 26.25 19.4892 26.25 19.2913 26.238C15.9789 26.0377 13.3373 23.3961 13.137 20.0837C13.125 19.8858 13.125 19.6514 13.125 19.1827Z"
        fill="white" />
    <path
        d="M28.5938 28.5938H34.6514C35.1202 28.5938 35.3545 28.5938 35.5525 28.6057C38.8649 28.8061 41.5064 31.4476 41.7068 34.76C41.7188 34.958 41.7188 35.1923 41.7188 35.6611C41.7188 36.0628 41.7188 36.2637 41.7085 36.4334C41.5367 39.2726 39.2726 41.5367 36.4334 41.7085C36.2637 41.7188 36.0628 41.7188 35.6611 41.7188C35.1923 41.7188 34.958 41.7188 34.76 41.7068C31.4476 41.5064 28.8061 38.8649 28.6057 35.5525C28.5938 35.3545 28.5938 35.1202 28.5938 34.6514V28.5938Z"
        fill="white" />
</svg>
