<svg width="305" height="306" viewBox="0 0 305 306" fill="none" xmlns="http://www.w3.org/2000/svg">
<path d="M50.3721 170.081C50.3721 170.081 43.9779 171.771 49.358 185.574C54.7382 199.376 58.724 206.348 58.724 206.348C58.724 206.348 59.6043 209.517 56.9917 209.728C54.3791 209.939 48.8158 208.474 47.3581 211.503C45.9004 214.531 47.9003 217.946 52.4284 221.122C56.9565 224.298 66.6112 231.629 67.4844 232.291C68.3576 232.953 69.1111 234.46 67.3506 234.889C65.5901 235.319 52.7523 235.368 53.1396 241.46C53.527 247.551 67.59 254.333 69.1111 255.107C70.6322 255.882 70.9421 256.586 70.7308 257.438C70.5196 258.29 66.1957 257.91 62.5409 258.072C58.886 258.234 54.6819 259.065 55.203 262.558C55.7241 266.051 63.6535 274.093 84.4277 278.255L94.1881 279.557L100.35 271.811C112.519 254.452 112.716 243.171 110.681 240.284C108.645 237.396 105.047 239.692 102.265 242.093C99.4837 244.495 96.6317 247.727 95.9275 247.29C95.2232 246.854 94.9134 246.086 95.4838 244.474C96.0542 242.861 101.561 228.277 97.6387 223.58C93.7162 218.883 84.3855 227.728 82.8151 228.622C81.2447 229.516 80.7588 227.918 80.9278 226.833C81.0968 225.749 83.0404 213.784 84.1249 208.362C85.2094 202.939 84.4136 199.13 81.1531 197.897C78.0124 196.714 74.9983 201.615 72.9561 203.263C70.9139 204.911 69.3717 202.01 69.3717 202.01C69.3717 202.01 67.4492 194.214 61.8226 180.51C56.1959 166.806 50.2665 170.102 50.2665 170.102" fill="#EBEBEB"/>
<path d="M94.4628 281.909C90.3713 271.832 83.3855 253.79 77.3223 238.333C71.2591 222.876 65.7521 208.897 61.71 198.799C59.6818 193.763 58.0481 189.644 56.9072 186.827L55.6045 183.574L55.2735 182.728C55.2328 182.632 55.1975 182.533 55.1678 182.433C55.1678 182.433 55.2171 182.524 55.3016 182.714C55.3862 182.905 55.5059 183.193 55.6608 183.552L57.0199 186.785C58.1889 189.602 59.8368 193.665 61.9071 198.707C65.9986 208.784 71.5407 222.756 77.611 238.213C83.6813 253.671 90.6178 271.72 94.667 281.818" fill="#E0E0E0"/>
<path d="M55.0551 213.869C55.2846 213.931 55.5066 214.018 55.717 214.129C56.1395 214.312 56.7381 214.594 57.4705 214.946C58.9423 215.65 60.9493 216.7 63.1464 217.89L68.7801 220.946L70.4843 221.854C70.7012 221.954 70.9067 222.077 71.097 222.221C70.8673 222.155 70.6436 222.07 70.428 221.967C70.0125 221.784 69.4139 221.495 68.6815 221.136C67.2168 220.432 65.2239 219.34 63.0478 218.157L57.4142 215.143L55.71 214.235C55.4759 214.143 55.2555 214.02 55.0551 213.869Z" fill="#E0E0E0"/>
<path d="M71.8012 221.657C71.7237 221.622 73.6814 217.39 76.1743 212.207C78.6672 207.024 80.7446 202.848 80.8221 202.883C80.8996 202.918 78.9419 207.157 76.449 212.34C73.956 217.523 71.8786 221.699 71.8012 221.657Z" fill="#E0E0E0"/>
<path d="M80.0475 245.812C80.1802 245.609 80.3336 245.42 80.5052 245.248L81.8291 243.776C82.9418 242.537 84.4699 240.812 86.0544 238.847C87.6389 236.882 89.0825 235.065 90.0895 233.734C90.5684 233.115 90.9627 232.587 91.2867 232.164C91.4196 231.961 91.5755 231.775 91.7515 231.608C91.6553 231.831 91.5324 232.041 91.3853 232.234C91.1247 232.622 90.7515 233.185 90.2656 233.868C89.3008 235.227 87.9206 237.079 86.2938 239.044C84.6671 241.009 83.1108 242.72 81.9559 243.924C81.3784 244.523 80.9066 245.009 80.5475 245.333C80.3983 245.51 80.2307 245.67 80.0475 245.812Z" fill="#E0E0E0"/>
<path d="M63.3507 242.1C63.5878 242.096 63.8245 242.122 64.0549 242.178L65.8507 242.502C67.3647 242.791 69.4562 243.206 71.759 243.692C74.0617 244.178 76.1392 244.629 77.6462 244.967L79.4208 245.389C79.6439 245.429 79.8614 245.495 80.0687 245.586C79.8316 245.591 79.5948 245.565 79.3644 245.509L77.5687 245.178C76.0476 244.889 73.9632 244.474 71.6604 243.995C69.3576 243.516 67.2732 243.058 65.7732 242.713L63.9915 242.298C63.7705 242.259 63.5552 242.193 63.3507 242.1Z" fill="#E0E0E0"/>
<path d="M67.8928 264.354C68.1821 264.365 68.4697 264.402 68.752 264.466L71.0547 264.875C72.9984 265.234 75.6814 265.748 78.632 266.332C81.5827 266.917 84.2657 267.473 86.2023 267.889L88.4839 268.389C88.7675 268.437 89.0457 268.513 89.3149 268.614C89.028 268.608 88.7425 268.572 88.4628 268.508L86.16 268.1C84.2164 267.741 81.5334 267.227 78.5757 266.635C75.618 266.044 72.942 265.494 71.0125 265.086L68.7238 264.579C68.4409 264.528 68.1629 264.452 67.8928 264.354Z" fill="#E0E0E0"/>
<path d="M88.8643 268.36C89.0281 268.109 89.2143 267.874 89.4206 267.656L91.0262 265.734C92.3853 264.107 94.2444 261.854 96.2303 259.304C98.2162 256.755 99.9556 254.417 101.202 252.706L102.681 250.678C102.852 250.428 103.043 250.193 103.251 249.974C103.121 250.251 102.963 250.516 102.779 250.762C102.456 251.262 101.984 251.973 101.371 252.875C100.167 254.614 98.4556 256.987 96.4416 259.537C94.4275 262.086 92.5614 264.318 91.167 265.917C90.4628 266.706 89.8924 267.325 89.484 267.776C89.2931 267.987 89.0859 268.182 88.8643 268.36Z" fill="#E0E0E0"/>
<path d="M245.268 183.359L195.819 213.235C193.309 214.752 192.504 218.016 194.021 220.526L242.918 301.455C244.434 303.965 247.698 304.771 250.208 303.254L299.657 273.378C302.167 271.861 302.972 268.597 301.455 266.087L252.559 185.158C251.042 182.648 247.778 181.842 245.268 183.359Z" fill="#EBEBEB"/>
<path d="M282.571 265.6C281.342 266.343 279.921 266.706 278.486 266.641C277.051 266.576 275.668 266.087 274.511 265.236C273.354 264.385 272.476 263.21 271.987 261.859C271.498 260.509 271.42 259.044 271.764 257.649C272.108 256.255 272.858 254.994 273.919 254.025C274.98 253.057 276.304 252.425 277.724 252.21C279.144 251.994 280.596 252.204 281.896 252.814C283.197 253.424 284.287 254.406 285.029 255.635C285.522 256.451 285.85 257.356 285.994 258.298C286.137 259.24 286.094 260.202 285.866 261.127C285.637 262.052 285.229 262.924 284.664 263.691C284.098 264.459 283.387 265.107 282.571 265.6Z" fill="white"/>
<path d="M283.381 274.487C282.764 274.489 282.149 274.413 281.55 274.262C279.686 273.796 278.069 272.636 277.03 271.019C275.991 269.401 275.608 267.449 275.959 265.559C276.31 263.669 277.369 261.984 278.919 260.848C280.47 259.712 282.395 259.211 284.303 259.445C286.211 259.68 287.957 260.634 289.186 262.112C290.415 263.59 291.034 265.481 290.916 267.4C290.798 269.318 289.953 271.12 288.553 272.437C287.153 273.754 285.303 274.487 283.381 274.487ZM283.381 259.966C282.158 259.969 280.958 260.295 279.902 260.914C278.847 261.532 277.975 262.419 277.375 263.485C276.775 264.55 276.468 265.756 276.487 266.979C276.505 268.202 276.848 269.398 277.48 270.445C278.427 271.996 279.945 273.113 281.708 273.554C283.471 273.996 285.336 273.726 286.902 272.804C288.072 272.097 289.005 271.059 289.584 269.822C290.164 268.584 290.363 267.203 290.157 265.852C289.951 264.501 289.35 263.242 288.428 262.233C287.507 261.224 286.307 260.511 284.98 260.185C284.442 260.043 283.888 259.97 283.332 259.966H283.381Z" fill="white"/>
<path d="M217.185 211.27L212.186 214.284L211.876 213.777L216.418 211.031L215.714 209.855L216.171 209.58L217.185 211.27Z" fill="white"/>
<path d="M215.777 219.15L215.319 219.425L213.207 215.904L213.566 215.678L216.854 216.531C217.117 216.64 217.4 216.689 217.684 216.676C217.967 216.662 218.244 216.586 218.495 216.453C219.073 216.101 219.199 215.481 218.728 214.721C218.585 214.454 218.385 214.224 218.141 214.046C217.897 213.868 217.616 213.747 217.319 213.693L217.411 213.136C217.788 213.215 218.143 213.376 218.451 213.607C218.758 213.838 219.012 214.134 219.192 214.474C219.805 215.488 219.678 216.446 218.847 216.946C218.534 217.119 218.187 217.22 217.83 217.242C217.473 217.264 217.116 217.206 216.784 217.073L214.087 216.369L215.777 219.15Z" fill="white"/>
<path d="M219.812 223.897L219.207 222.897L217.89 223.685L217.58 223.171L218.89 222.383L217.185 219.566L217.559 219.34L222.488 219.988L222.833 220.559L218.066 219.953L219.376 222.122L220.53 221.418L220.833 221.918L219.678 222.622L220.284 223.622L219.812 223.897Z" fill="white"/>
<path d="M224.439 231.551L223.833 230.551L222.523 231.347L222.213 230.833L223.523 230.037L221.819 227.22L222.192 226.995L227.122 227.643L227.467 228.213L222.699 227.608L224.009 229.777L225.171 229.073L225.467 229.573L224.312 230.277L224.932 231.256L224.439 231.551Z" fill="white"/>
<path d="M227.235 235.826C226.389 236.34 225.361 236.143 224.629 234.924C224.211 234.281 224.052 233.504 224.185 232.748H224.742C224.608 233.399 224.734 234.077 225.094 234.636C225.608 235.481 226.291 235.685 226.897 235.34C227.502 234.995 227.699 234.312 226.897 233.037L226.256 231.974L228.918 230.72L230.565 233.453L230.108 233.727L228.699 231.446L227.009 232.234L227.397 232.875C228.368 234.361 228.122 235.291 227.235 235.826Z" fill="white"/>
<path d="M230.241 240.748C230.025 240.877 229.784 240.959 229.534 240.989C229.284 241.019 229.031 240.997 228.789 240.925C228.548 240.852 228.325 240.73 228.134 240.566C227.943 240.402 227.787 240.201 227.678 239.974C226.875 238.643 227.361 237.368 228.939 236.41C230.636 235.389 232.079 235.784 232.896 237.115C233.165 237.517 233.32 237.984 233.347 238.467L232.805 238.509C232.798 238.112 232.676 237.725 232.453 237.396C231.805 236.319 230.692 236.044 229.34 236.861C229.204 236.943 229.072 237.032 228.946 237.129C229.308 237.105 229.67 237.188 229.986 237.369C230.301 237.549 230.557 237.818 230.72 238.143C230.876 238.339 230.988 238.567 231.049 238.81C231.109 239.054 231.117 239.307 231.072 239.554C231.026 239.801 230.929 240.035 230.786 240.241C230.643 240.447 230.457 240.62 230.241 240.748ZM229.918 240.255C230.074 240.16 230.209 240.032 230.312 239.88C230.415 239.728 230.484 239.556 230.515 239.375C230.545 239.194 230.537 239.009 230.49 238.831C230.443 238.654 230.358 238.489 230.241 238.347C230.177 238.166 230.072 238.002 229.936 237.867C229.799 237.731 229.633 237.629 229.452 237.566C229.27 237.504 229.076 237.483 228.886 237.505C228.695 237.527 228.511 237.592 228.349 237.695C228.186 237.798 228.049 237.936 227.947 238.099C227.846 238.262 227.782 238.446 227.761 238.637C227.739 238.828 227.762 239.022 227.825 239.203C227.889 239.384 227.993 239.549 228.129 239.685C228.203 239.845 228.31 239.988 228.442 240.105C228.575 240.221 228.73 240.309 228.898 240.363C229.066 240.417 229.243 240.435 229.419 240.416C229.595 240.398 229.764 240.343 229.918 240.255Z" fill="white"/>
<path d="M234.312 247.621C233.481 248.128 232.474 247.91 231.742 246.699C231.32 246.055 231.161 245.273 231.298 244.516H231.854C231.72 245.172 231.849 245.855 232.213 246.417C232.713 247.248 233.375 247.466 233.995 247.121C234.615 246.776 234.734 246.1 234.171 245.171L233.96 244.819L234.333 244.586L236.903 244.924L235.361 242.368L235.819 242.093L237.763 245.305L237.396 245.523L234.763 245.185C235.354 246.262 235.115 247.143 234.312 247.621Z" fill="white"/>
<path d="M237.396 252.6C237.179 252.728 236.938 252.81 236.688 252.84C236.437 252.87 236.184 252.847 235.943 252.774C235.701 252.7 235.478 252.577 235.287 252.413C235.096 252.248 234.942 252.046 234.833 251.818C234.03 250.495 234.516 249.213 236.093 248.262C237.791 247.234 239.241 247.628 240.058 248.966C240.322 249.368 240.475 249.832 240.502 250.311L239.967 250.354C239.956 249.957 239.834 249.572 239.615 249.241C238.96 248.164 237.854 247.889 236.495 248.713C236.382 248.776 236.241 248.875 236.1 248.973C236.464 248.953 236.825 249.038 237.141 249.218C237.457 249.397 237.714 249.665 237.882 249.988C238.038 250.185 238.149 250.414 238.209 250.658C238.27 250.902 238.277 251.157 238.231 251.404C238.185 251.651 238.087 251.886 237.943 252.092C237.799 252.298 237.612 252.472 237.396 252.6ZM237.079 252.1C237.236 252.004 237.369 251.876 237.472 251.724C237.574 251.571 237.643 251.399 237.673 251.218C237.703 251.037 237.694 250.852 237.646 250.675C237.598 250.498 237.513 250.333 237.396 250.192C237.333 250.007 237.229 249.839 237.092 249.7C236.955 249.562 236.788 249.456 236.603 249.392C236.419 249.327 236.223 249.305 236.029 249.327C235.835 249.35 235.649 249.416 235.484 249.52C235.32 249.625 235.181 249.766 235.079 249.932C234.977 250.098 234.913 250.286 234.894 250.48C234.875 250.674 234.9 250.87 234.967 251.053C235.035 251.236 235.143 251.402 235.284 251.537C235.359 251.697 235.467 251.839 235.6 251.955C235.734 252.071 235.89 252.158 236.058 252.211C236.227 252.264 236.405 252.282 236.58 252.262C236.756 252.243 236.926 252.188 237.079 252.1Z" fill="white"/>
<path d="M243.678 255.079L243.319 255.297L237.417 256.002L237.086 255.445L242.868 254.741L241.312 252.171L240.382 252.734L240.072 252.227L241.481 251.389L243.678 255.079Z" fill="white"/>
<path d="M247.995 262.241L247.636 262.459L241.734 263.163L241.403 262.607L247.185 261.903L245.629 259.332L244.692 259.903L244.389 259.396L245.798 258.551L247.995 262.241Z" fill="white"/>
<path d="M247.361 269.318C246.481 269.853 245.474 269.431 244.755 268.241C244.037 267.051 244.143 265.98 245.023 265.424C245.306 265.25 245.641 265.177 245.971 265.218C246.301 265.259 246.608 265.411 246.84 265.649C246.771 265.373 246.795 265.082 246.907 264.82C247.019 264.558 247.213 264.34 247.459 264.199C248.276 263.706 249.199 264.093 249.84 265.149C250.481 266.206 250.396 267.22 249.586 267.713C249.343 267.863 249.057 267.931 248.772 267.907C248.487 267.883 248.217 267.768 248.002 267.579C248.109 267.898 248.104 268.245 247.988 268.561C247.871 268.878 247.65 269.145 247.361 269.318ZM247.051 268.783C247.664 268.41 247.755 267.649 247.199 266.769C246.643 265.889 245.96 265.593 245.347 265.966C244.734 266.339 244.643 267.093 245.192 267.98C245.741 268.868 246.431 269.156 247.051 268.783ZM247.6 266.523C248.072 267.297 248.706 267.551 249.248 267.227C249.79 266.903 249.854 266.184 249.403 265.431C248.952 264.677 248.312 264.41 247.755 264.727C247.199 265.044 247.136 265.762 247.6 266.523Z" fill="white"/>
<path d="M251.445 273.508C249.748 274.536 248.298 274.142 247.481 272.804C247.217 272.4 247.064 271.934 247.037 271.452L247.572 271.41C247.583 271.806 247.705 272.192 247.924 272.522C248.579 273.6 249.685 273.874 251.044 273.058C251.157 272.987 251.297 272.896 251.438 272.79C251.075 272.811 250.713 272.727 250.397 272.547C250.081 272.367 249.824 272.099 249.657 271.776C249.505 271.579 249.396 271.353 249.338 271.111C249.28 270.87 249.274 270.619 249.32 270.375C249.366 270.131 249.463 269.899 249.605 269.695C249.746 269.491 249.93 269.319 250.143 269.191C250.359 269.062 250.6 268.979 250.85 268.948C251.1 268.917 251.354 268.939 251.596 269.012C251.837 269.085 252.06 269.207 252.251 269.372C252.443 269.536 252.597 269.738 252.706 269.966C253.509 271.248 253.023 272.522 251.445 273.508ZM252.009 272.205C252.162 272.098 252.291 271.961 252.389 271.801C252.486 271.642 252.55 271.464 252.576 271.279C252.601 271.094 252.589 270.906 252.538 270.726C252.488 270.546 252.401 270.379 252.283 270.234C252.214 270.059 252.107 269.903 251.97 269.775C251.833 269.647 251.669 269.55 251.491 269.493C251.312 269.435 251.123 269.417 250.937 269.441C250.751 269.465 250.573 269.53 250.415 269.63C250.257 269.731 250.123 269.865 250.022 270.024C249.922 270.182 249.858 270.361 249.835 270.547C249.811 270.733 249.829 270.922 249.887 271.1C249.946 271.279 250.042 271.442 250.171 271.579C250.25 271.74 250.362 271.884 250.498 272.002C250.635 272.119 250.793 272.208 250.965 272.263C251.136 272.318 251.317 272.339 251.496 272.323C251.675 272.307 251.85 272.255 252.009 272.17V272.205Z" fill="white"/>
<path d="M256.959 277.029L251.966 280.05L251.656 279.536L256.192 276.79L255.487 275.614L255.945 275.339L256.959 277.029Z" fill="white"/>
<path d="M255.53 284.938L255.072 285.219L252.959 281.698L253.326 281.48L256.614 282.325C256.877 282.433 257.16 282.483 257.443 282.469C257.727 282.456 258.004 282.38 258.255 282.247C258.832 281.902 258.959 281.276 258.48 280.515C258.34 280.248 258.14 280.016 257.896 279.837C257.651 279.659 257.37 279.539 257.072 279.487L257.163 278.938C257.542 279.015 257.899 279.174 258.208 279.406C258.517 279.637 258.771 279.934 258.952 280.276C259.565 281.29 259.438 282.24 258.6 282.747C258.288 282.919 257.941 283.019 257.585 283.04C257.23 283.06 256.874 283.001 256.544 282.867L253.847 282.163L255.53 284.938Z" fill="white"/>
<path d="M259.213 288.832C258.375 289.339 257.368 289.121 256.642 287.909C256.22 287.265 256.062 286.484 256.199 285.726H256.755C256.621 286.383 256.75 287.065 257.114 287.628C257.614 288.452 258.276 288.677 258.896 288.332C259.516 287.987 259.6 287.311 259.072 286.381L258.854 286.022L259.234 285.797L261.804 286.135L260.262 283.578L260.72 283.304L262.656 286.515L262.297 286.733L259.663 286.395C260.255 287.473 260.015 288.346 259.213 288.832Z" fill="white"/>
<path d="M232.742 253.891L230.562 255.209L254.881 295.429L257.061 294.11L232.742 253.891Z" fill="white"/>
<path d="M238.299 275.638L236.129 276.949L248.533 297.478L250.703 296.167L238.299 275.638Z" fill="white"/>
<path d="M240.54 211.797L234.007 200.984C233.01 199.333 230.862 198.803 229.211 199.8L222.642 203.77C220.99 204.767 220.461 206.915 221.458 208.566L227.991 219.379C228.989 221.03 231.136 221.56 232.787 220.562L239.357 216.593C241.008 215.595 241.538 213.448 240.54 211.797Z" fill="#E0E0E0"/>
<path d="M223.122 203.467L223.925 202.981L229.157 211.629C229.3 211.867 229.489 212.074 229.713 212.239C229.936 212.403 230.19 212.522 230.459 212.589C230.728 212.656 231.008 212.669 231.283 212.627C231.557 212.586 231.821 212.491 232.058 212.347C232.296 212.204 232.503 212.015 232.668 211.792C232.833 211.569 232.952 211.315 233.018 211.046C233.085 210.776 233.098 210.496 233.057 210.222C233.015 209.947 232.92 209.684 232.777 209.446L227.551 200.798L228.354 200.312L233.579 208.96C233.998 209.653 234.124 210.484 233.93 211.27C233.736 212.055 233.237 212.732 232.544 213.15C231.851 213.569 231.021 213.695 230.235 213.5C229.449 213.306 228.773 212.808 228.354 212.115L223.122 203.467Z" fill="#EBEBEB"/>
<path d="M234.502 212.414L233.69 212.905L237.297 218.871L238.109 218.38L234.502 212.414Z" fill="#EBEBEB"/>
<path d="M269.83 236.933L243.734 193.741L240.027 195.981L266.123 239.173L269.83 236.933Z" fill="white"/>
<path d="M123.033 0C122.497 7.60547 123.033 21.7742 120.265 28.8726C117.497 35.9711 113.8 43.2948 106.885 46.4779C98.35 50.3933 88.322 48.7313 79.2166 51.0271C64.9493 54.6185 54.6256 67.7098 50.2243 81.7518C45.823 95.7937 46.3089 110.836 46.837 125.54L119.652 135.638C119.652 135.638 120.033 106.061 126.385 97.9697C132.737 89.8783 162.912 82.6179 172.862 60.4987C181.834 40.5907 184.538 9.02093 184.538 9.02093L123.033 0Z" fill="#F5F5F5"/>
<path d="M140.821 19.9925L139.877 18.2531C139.746 18.2631 139.614 18.2631 139.483 18.2531L138.145 18.0912L137.948 19.6686L137.427 19.6052L138.039 14.6265L139.898 14.8589C141.166 15.0138 141.849 15.7532 141.722 16.8166C141.692 17.1672 141.544 17.4974 141.303 17.7532C141.061 18.009 140.74 18.1753 140.391 18.225L141.391 20.0771L140.821 19.9925ZM141.194 16.725C141.293 15.9293 140.821 15.4081 139.828 15.3166L138.504 15.1546L138.201 17.6475L139.518 17.8095C140.518 17.8799 141.131 17.5137 141.194 16.7321V16.725Z" fill="#E0E0E0"/>
<path d="M146.131 20.1968L146.074 20.6475L142.553 20.2179L143.166 15.2462L146.574 15.6617L146.518 16.1194L143.645 15.7673L143.426 17.5419L145.997 17.8588L145.94 18.3025L143.37 17.9856L143.138 19.8306L146.131 20.1968Z" fill="#E0E0E0"/>
<path d="M147.145 18.2601C147.182 17.9191 147.289 17.5893 147.458 17.2909C147.628 16.9926 147.856 16.7319 148.13 16.5249C148.403 16.3179 148.716 16.1689 149.049 16.0871C149.383 16.0052 149.729 15.9922 150.067 16.0489C150.405 16.0781 150.733 16.1778 151.031 16.3416C151.328 16.5053 151.587 16.7295 151.793 16.9996L151.419 17.2954C151.252 17.0743 151.041 16.8909 150.798 16.7574C150.555 16.6239 150.287 16.5433 150.011 16.5207C149.735 16.4751 149.453 16.4857 149.181 16.5519C148.909 16.6181 148.653 16.7385 148.429 16.9059C148.205 17.0733 148.017 17.2842 147.876 17.526C147.736 17.7678 147.645 18.0355 147.611 18.3131C147.576 18.5907 147.598 18.8724 147.675 19.1414C147.752 19.4104 147.882 19.661 148.058 19.8783C148.234 20.0957 148.453 20.2752 148.7 20.4061C148.947 20.5371 149.218 20.6167 149.497 20.6404C149.77 20.6844 150.049 20.6702 150.316 20.5986C150.583 20.527 150.832 20.3996 151.046 20.2249L151.335 20.6052C151.068 20.8171 150.76 20.9711 150.43 21.0572C150.1 21.1433 149.756 21.1596 149.419 21.1051C149.08 21.0749 148.751 20.9763 148.451 20.8153C148.151 20.6543 147.887 20.4342 147.675 20.1684C147.462 19.9025 147.305 19.5964 147.214 19.2685C147.123 18.9405 147.1 18.5975 147.145 18.2601Z" fill="#E0E0E0"/>
<path d="M155.961 21.4009L155.905 21.8587L152.398 21.4009L153.011 16.4292L156.419 16.8517L156.363 17.3024L153.476 16.9503L153.257 18.7179L155.828 19.0348L155.778 19.4855L153.208 19.1686L152.976 21.0136L155.961 21.4009Z" fill="#E0E0E0"/>
<path d="M157.757 17.0419L158.278 17.1123L157.666 22.1051L157.137 22.0347L157.757 17.0419Z" fill="#E0E0E0"/>
<path d="M163.581 19.4925C163.447 20.5559 162.602 21.0981 161.342 20.9432L160.004 20.7742L159.813 22.3445L159.285 22.2812L159.898 17.3094L161.757 17.5418C163.025 17.6968 163.715 18.4291 163.581 19.4925ZM163.053 19.4291C163.151 18.6334 162.687 18.1193 161.687 18.0207L160.37 17.8587L160.06 20.3446L161.384 20.5066C162.377 20.6052 162.961 20.2108 163.053 19.4291Z" fill="#E0E0E0"/>
<path d="M165.672 18.4855L163.926 18.2672L163.982 17.8165L168.003 18.3095L167.947 18.7672L166.201 18.5841L165.644 23.1051L165.116 23.0347L165.672 18.4855Z" fill="#E0E0E0"/>
<path d="M157.806 32.1402C157.806 32.2459 151.152 31.436 142.983 30.3093C134.814 29.1826 128.194 28.1967 128.194 28.1122C128.194 28.0276 134.842 28.8164 142.983 29.9431C151.123 31.0698 157.813 32.0416 157.806 32.1402Z" fill="#E0E0E0"/>
<path d="M157.004 38.0696C157.004 38.1752 150.356 37.3653 142.215 36.2386C134.075 35.1119 127.427 34.126 127.427 34.0415C127.427 33.957 134.075 34.7457 142.215 35.8724C150.356 36.9992 157.018 37.971 157.004 38.0696Z" fill="#E0E0E0"/>
<path d="M154.292 44.1187C154.292 44.2173 147.645 43.4145 139.504 42.2878C131.363 41.161 124.716 40.1751 124.716 40.0836C124.716 39.992 131.356 40.7878 139.504 41.9216C147.652 43.0553 154.306 44.0201 154.292 44.1187Z" fill="#E0E0E0"/>
<path d="M149.356 50.2173C149.356 50.3229 142.708 49.5131 134.532 48.3863C126.356 47.2596 119.744 46.2737 119.744 46.1892C119.744 46.1047 126.392 46.8934 134.568 48.0201C142.743 49.1469 149.37 50.1187 149.356 50.2173Z" fill="#E0E0E0"/>
<path d="M141.49 56.3087C141.49 56.4072 134.842 55.6044 126.701 54.4707C118.561 53.3369 111.913 52.358 111.913 52.2735C111.913 52.189 118.561 52.9777 126.701 54.1115C134.842 55.2453 141.504 56.203 141.49 56.3087Z" fill="#E0E0E0"/>
<path d="M171.067 34.119C168.625 33.9672 166.205 33.5732 163.841 32.943C165.068 32.9594 166.29 33.0962 167.489 33.3514C168.704 33.4875 169.903 33.7446 171.067 34.119Z" fill="#E0E0E0"/>
<path d="M170.813 39.4076C169.594 39.3922 168.379 39.2577 167.187 39.0062C165.971 38.8702 164.773 38.613 163.609 38.2386C164.834 38.247 166.054 38.3839 167.25 38.6471C168.46 38.7838 169.653 39.0385 170.813 39.4076Z" fill="#E0E0E0"/>
<path d="M169.017 46.7525C167.791 46.7307 166.569 46.5892 165.37 46.33C164.159 46.1769 162.962 45.9249 161.792 45.5765C161.792 45.4497 163.44 45.6399 165.433 45.9638C166.651 46.106 167.852 46.3702 169.017 46.7525Z" fill="#E0E0E0"/>
<path d="M166.426 52.9144C165.199 52.8926 163.977 52.751 162.778 52.4919C161.567 52.3378 160.371 52.0858 159.201 51.7384C159.201 51.6116 160.849 51.8017 162.842 52.1257C164.06 52.2669 165.261 52.5311 166.426 52.9144Z" fill="#E0E0E0"/>
<path d="M160.849 58.7945C159.622 58.7729 158.4 58.6314 157.201 58.3719C155.989 58.2229 154.792 57.9708 153.623 57.6184C153.623 57.4917 155.271 57.6818 157.257 58.0128C158.477 58.1544 159.68 58.4162 160.849 58.7945Z" fill="#E0E0E0"/>
<path d="M134.793 63.7451C134.793 63.8436 124.821 62.5197 112.554 60.7803C100.287 59.0409 90.3431 57.5551 90.3572 57.4565C90.3713 57.3579 100.329 58.6818 112.603 60.4212C124.878 62.1606 134.793 63.6535 134.793 63.7451Z" fill="#E0E0E0"/>
<path d="M129.624 69.9915C129.459 69.9869 129.294 69.9728 129.131 69.9492L127.723 69.7661L122.582 69.0126L105.639 66.4071C99.026 65.3648 93.0473 64.393 88.7375 63.6677L83.6179 62.7874C83.0123 62.6747 82.5475 62.5902 82.2095 62.5198C82.0455 62.4959 81.8849 62.4534 81.7306 62.3931C81.8961 62.3988 82.061 62.4177 82.2235 62.4494L83.632 62.6466L88.7727 63.4142L105.716 66.0409L122.617 68.7591L127.737 69.6253L129.145 69.8788C129.309 69.8962 129.47 69.9341 129.624 69.9915Z" fill="#E0E0E0"/>
<path d="M120.328 75.6674C119.714 75.6817 119.1 75.6273 118.497 75.5055C117.307 75.3505 115.582 75.1111 113.448 74.8013C109.188 74.1886 103.308 73.2942 96.8218 72.2802C90.336 71.2661 84.4559 70.3154 80.2095 69.6112L75.1814 68.7662L73.8223 68.5127C73.6613 68.493 73.503 68.4552 73.3505 68.4C73.5112 68.3951 73.6719 68.4093 73.8293 68.4422L75.2025 68.6183L80.2517 69.3225L96.8781 71.8788L113.49 74.5125L120.328 75.6674Z" fill="#E0E0E0"/>
<path d="M151.546 67.1747C150.319 67.1528 149.097 67.0113 147.898 66.7521C146.687 66.598 145.491 66.346 144.321 65.9986C144.321 65.8719 145.969 66.062 147.962 66.3859C149.18 66.5261 150.381 66.7903 151.546 67.1747Z" fill="#E0E0E0"/>
<path d="M144.37 71.1605C143.143 71.1387 141.922 70.9971 140.722 70.738C139.511 70.5839 138.315 70.3319 137.145 69.9845C137.145 69.8577 138.793 70.0478 140.786 70.3718C142.004 70.5119 143.205 70.7762 144.37 71.1605Z" fill="#E0E0E0"/>
<path d="M134.708 77.8857C133.482 77.8638 132.26 77.7223 131.061 77.4631C129.849 77.3131 128.652 77.061 127.483 76.7096C127.483 76.5829 129.131 76.773 131.124 77.104C132.342 77.2439 133.543 77.5057 134.708 77.8857Z" fill="#E0E0E0"/>
<path d="M116.244 88.5051C116.244 88.6108 103.913 86.7939 88.7798 84.463C73.6463 82.1321 61.3156 80.1532 61.3156 80.0546C61.3156 79.956 73.6392 81.7659 88.7798 84.1038C103.92 86.4418 116.258 88.4066 116.244 88.5051Z" fill="#E0E0E0"/>
<path d="M108.871 101.836C108.871 101.934 104.815 101.364 99.857 100.561C94.8994 99.7584 90.8854 99.026 90.8995 98.9275C90.9135 98.8289 94.9557 99.3993 99.9133 100.202C104.871 101.005 108.885 101.73 108.871 101.836Z" fill="#E0E0E0"/>
<path d="M303.388 302.909C303.388 303.015 235.467 303.092 151.701 303.092C67.9352 303.092 0 303.015 0 302.909C0 302.803 67.907 302.726 151.701 302.726C235.495 302.726 303.388 302.81 303.388 302.909Z" fill="#103B5A"/>
<path d="M195.822 303.86L107.211 303.451C102.094 303.427 97.1962 301.372 93.5939 297.738C89.9916 294.104 87.9796 289.188 88.0002 284.071L88.9368 61.9212C88.961 56.8012 91.0177 51.9005 94.6545 48.2966C98.2914 44.6928 103.211 42.6808 108.331 42.7033L196.941 43.1118C199.475 43.1228 201.982 43.6329 204.319 44.6128C206.656 45.5927 208.777 47.0233 210.561 48.8229C212.345 50.6225 213.757 52.7559 214.716 55.1011C215.675 57.4464 216.163 59.9577 216.152 62.4916L215.216 284.635C215.205 287.17 214.694 289.679 213.714 292.018C212.733 294.356 211.301 296.479 209.5 298.264C207.7 300.049 205.565 301.462 203.218 302.422C200.871 303.382 198.358 303.871 195.822 303.86Z" fill="#103B5A"/>
<path d="M196.054 49.344L178.871 49.2595C177.74 49.2818 176.664 49.7516 175.878 50.5661C175.093 51.3805 174.662 52.4732 174.681 53.6045V56.7171C174.692 57.2776 174.591 57.8345 174.386 58.3562C174.181 58.8779 173.875 59.3541 173.486 59.7576C173.097 60.1611 172.632 60.484 172.119 60.7078C171.605 60.9316 171.052 61.052 170.491 61.0621L137.006 60.9072C135.875 60.8758 134.802 60.3971 134.023 59.576C133.244 58.7549 132.823 57.6584 132.851 56.527V53.4073C132.88 52.2759 132.458 51.1794 131.679 50.3583C130.9 49.5372 129.828 49.0585 128.696 49.0272H122.654L107.619 48.9638C105.844 48.9554 104.084 49.2969 102.44 49.9687C100.797 50.6405 99.3015 51.6294 98.0401 52.8791C96.7786 54.1287 95.7757 55.6146 95.0886 57.2518C94.4014 58.8891 94.0434 60.6456 94.0351 62.4212L93.1197 279.255C93.116 281.031 93.4622 282.79 94.1388 284.433C94.8153 286.075 95.8087 287.568 97.0624 288.826C98.316 290.084 99.8053 291.083 101.445 291.766C103.085 292.448 104.843 292.801 106.619 292.804L195.054 293.212C196.829 293.22 198.589 292.879 200.232 292.207C201.875 291.535 203.37 290.546 204.631 289.296C205.892 288.047 206.894 286.561 207.58 284.923C208.267 283.286 208.624 281.53 208.631 279.755L209.54 62.9494C209.552 61.1694 209.212 59.4046 208.54 57.7563C207.868 56.108 206.877 54.6086 205.624 53.3444C204.371 52.0802 202.88 51.076 201.238 50.3895C199.596 49.703 197.834 49.3477 196.054 49.344Z" fill="#FAFAFA"/>
<path d="M105.521 72.3929C105.425 72.39 105.334 72.3496 105.267 72.2802L103.922 70.8718C103.889 70.84 103.864 70.8016 103.847 70.7591C103.83 70.7166 103.822 70.671 103.824 70.6253C103.824 70.5793 103.834 70.5337 103.852 70.4914C103.87 70.4491 103.896 70.4108 103.929 70.3789L105.281 69.0901C105.314 69.0574 105.352 69.0313 105.394 69.0135C105.437 68.9957 105.482 68.9866 105.528 68.9866C105.574 68.9866 105.619 68.9957 105.662 69.0135C105.704 69.0313 105.742 69.0574 105.774 69.0901C105.807 69.1229 105.834 69.1618 105.851 69.2047C105.869 69.2476 105.879 69.2937 105.879 69.3401C105.879 69.3866 105.869 69.4326 105.851 69.4756C105.834 69.5185 105.807 69.5574 105.774 69.5901L104.676 70.6324L105.781 71.7873C105.814 71.82 105.841 71.8589 105.859 71.9019C105.876 71.9448 105.886 71.9908 105.886 72.0373C105.886 72.0837 105.876 72.1298 105.859 72.1727C105.841 72.2156 105.814 72.2545 105.781 72.2873C105.747 72.3212 105.706 72.3479 105.662 72.3661C105.617 72.3842 105.569 72.3933 105.521 72.3929Z" fill="#103B5A"/>
<path d="M189.026 255.635H115.915C109.646 255.635 104.563 260.718 104.563 266.987V269.022C104.563 275.292 109.646 280.374 115.915 280.374H189.026C195.296 280.374 200.378 275.292 200.378 269.022V266.987C200.378 260.718 195.296 255.635 189.026 255.635Z" fill="#30C182"/>
<path d="M141.076 265.135H143.302C143.673 265.116 144.044 265.173 144.392 265.302C144.74 265.431 145.059 265.63 145.328 265.885C145.597 266.141 145.811 266.449 145.958 266.791C146.104 267.132 146.18 267.5 146.18 267.871C146.18 268.242 146.104 268.61 145.958 268.951C145.811 269.293 145.597 269.601 145.328 269.856C145.059 270.112 144.74 270.311 144.392 270.44C144.044 270.569 143.673 270.626 143.302 270.607H141.076V265.135ZM143.274 270.107C143.578 270.124 143.882 270.079 144.168 269.974C144.454 269.869 144.716 269.708 144.938 269.498C145.159 269.289 145.335 269.037 145.456 268.757C145.576 268.477 145.638 268.176 145.638 267.871C145.638 267.566 145.576 267.265 145.456 266.985C145.335 266.705 145.159 266.453 144.938 266.244C144.716 266.034 144.454 265.872 144.168 265.768C143.882 265.663 143.578 265.618 143.274 265.635H141.654V270.107H143.274Z" fill="#FAFAFA"/>
<path d="M147.041 267.875C147.023 267.303 147.176 266.739 147.48 266.255C147.784 265.771 148.226 265.388 148.748 265.156C149.271 264.925 149.851 264.854 150.414 264.954C150.977 265.054 151.498 265.319 151.909 265.716C152.32 266.113 152.604 266.624 152.723 267.184C152.842 267.743 152.792 268.325 152.578 268.855C152.365 269.386 151.998 269.841 151.525 270.161C151.051 270.482 150.493 270.654 149.921 270.656C149.547 270.674 149.172 270.616 148.821 270.484C148.47 270.352 148.149 270.149 147.879 269.889C147.609 269.628 147.396 269.315 147.252 268.968C147.108 268.622 147.036 268.25 147.041 267.875ZM152.21 267.875C152.217 267.417 152.088 266.968 151.838 266.584C151.589 266.201 151.231 265.9 150.81 265.721C150.389 265.541 149.924 265.492 149.475 265.578C149.025 265.664 148.612 265.881 148.287 266.204C147.962 266.526 147.74 266.937 147.65 267.386C147.56 267.834 147.605 268.299 147.781 268.722C147.956 269.145 148.253 269.505 148.635 269.758C149.016 270.011 149.464 270.145 149.921 270.142C150.223 270.153 150.524 270.102 150.805 269.992C151.086 269.882 151.341 269.715 151.556 269.503C151.77 269.291 151.939 269.037 152.051 268.756C152.164 268.476 152.218 268.176 152.21 267.875Z" fill="#FAFAFA"/>
<path d="M158.646 265.135V270.607H158.175L154.654 266.17V270.607H154.069V265.135H154.548L158.069 269.572V265.135H158.646Z" fill="#FAFAFA"/>
<path d="M164.294 270.107V270.607H160.428V265.135H164.175V265.635H161.006V267.579H163.822V268.072H161.006V270.107H164.294Z" fill="#FAFAFA"/>
<path d="M116.063 181.257C116.063 182.25 115.359 182.855 114.155 182.855H112.894V184.334H112.394V179.651H114.155C115.345 179.644 116.063 180.243 116.063 181.257ZM115.57 181.257C115.57 180.503 115.077 180.074 114.162 180.074H112.915V182.419H114.162C115.07 182.412 115.57 181.961 115.57 181.257Z" fill="#103B5A"/>
<path d="M120.281 180.806V184.327H119.823V183.686C119.696 183.907 119.51 184.09 119.287 184.214C119.064 184.338 118.811 184.399 118.556 184.39C118.353 184.409 118.149 184.383 117.958 184.313C117.768 184.244 117.595 184.132 117.452 183.987C117.31 183.842 117.202 183.667 117.136 183.475C117.069 183.283 117.047 183.078 117.07 182.876V180.834H117.549V182.827C117.549 183.581 117.936 183.961 118.605 183.961C118.772 183.969 118.938 183.941 119.093 183.878C119.248 183.816 119.387 183.72 119.501 183.598C119.615 183.476 119.701 183.33 119.753 183.172C119.805 183.013 119.822 182.845 119.802 182.679V180.834L120.281 180.806Z" fill="#103B5A"/>
<path d="M123.387 180.778V181.257H123.274C123.106 181.248 122.938 181.276 122.783 181.34C122.627 181.403 122.487 181.5 122.374 181.624C122.26 181.748 122.175 181.895 122.125 182.056C122.075 182.216 122.061 182.386 122.084 182.552V184.348H121.612V180.827H122.063V181.531C122.181 181.286 122.37 181.082 122.607 180.948C122.844 180.813 123.116 180.754 123.387 180.778Z" fill="#103B5A"/>
<path d="M123.852 182.567C123.845 182.327 123.887 182.089 123.976 181.867C124.065 181.645 124.199 181.444 124.37 181.276C124.54 181.108 124.744 180.977 124.967 180.891C125.191 180.806 125.429 180.767 125.668 180.778C125.945 180.757 126.222 180.812 126.47 180.936C126.718 181.06 126.928 181.248 127.077 181.482L126.718 181.721C126.605 181.556 126.452 181.422 126.274 181.331C126.095 181.24 125.897 181.195 125.697 181.2C125.385 181.271 125.108 181.446 124.909 181.695C124.71 181.945 124.601 182.254 124.601 182.574C124.601 182.893 124.71 183.202 124.909 183.452C125.108 183.701 125.385 183.876 125.697 183.947C125.896 183.954 126.094 183.91 126.273 183.82C126.451 183.731 126.604 183.597 126.718 183.433L127.077 183.672C126.925 183.904 126.715 184.091 126.468 184.215C126.22 184.338 125.944 184.394 125.668 184.376C125.428 184.386 125.188 184.346 124.963 184.259C124.739 184.172 124.535 184.039 124.364 183.869C124.194 183.699 124.06 183.495 123.972 183.271C123.884 183.047 123.843 182.807 123.852 182.567Z" fill="#103B5A"/>
<path d="M131.168 182.285V184.327H130.689V182.334C130.711 182.187 130.699 182.037 130.655 181.896C130.611 181.754 130.535 181.624 130.433 181.516C130.332 181.407 130.207 181.323 130.068 181.27C129.93 181.217 129.781 181.195 129.633 181.207C129.464 181.195 129.295 181.22 129.137 181.28C128.979 181.341 128.836 181.435 128.719 181.557C128.601 181.678 128.512 181.824 128.457 181.984C128.402 182.144 128.383 182.314 128.401 182.482V184.327H127.922V179.362H128.401V181.419C128.546 181.207 128.744 181.037 128.975 180.925C129.205 180.813 129.461 180.762 129.717 180.778C129.917 180.762 130.118 180.79 130.305 180.861C130.492 180.932 130.661 181.044 130.8 181.188C130.938 181.332 131.043 181.505 131.107 181.695C131.171 181.885 131.192 182.086 131.168 182.285Z" fill="#103B5A"/>
<path d="M135.119 182.144V184.327H134.661V183.778C134.53 183.974 134.348 184.132 134.135 184.235C133.922 184.338 133.686 184.382 133.45 184.362C132.654 184.362 132.161 183.947 132.161 183.334C132.161 182.721 132.513 182.341 133.52 182.341H134.64V182.123C134.64 181.524 134.302 181.193 133.64 181.193C133.213 181.189 132.799 181.336 132.471 181.609L132.26 181.257C132.66 180.939 133.157 180.77 133.668 180.778C133.858 180.746 134.053 180.759 134.238 180.816C134.422 180.872 134.591 180.97 134.731 181.102C134.872 181.234 134.98 181.397 135.047 181.578C135.114 181.758 135.139 181.952 135.119 182.144ZM134.64 183.271V182.665H133.534C132.83 182.665 132.633 182.933 132.633 183.292C132.633 183.651 132.957 183.961 133.52 183.961C133.755 183.975 133.989 183.917 134.19 183.793C134.39 183.67 134.547 183.487 134.64 183.271Z" fill="#103B5A"/>
<path d="M135.922 183.926L136.133 183.552C136.499 183.811 136.938 183.949 137.386 183.947C138.055 183.947 138.33 183.714 138.33 183.369C138.33 182.454 136.048 183.172 136.048 181.785C136.048 181.207 136.541 180.778 137.457 180.778C137.893 180.77 138.322 180.885 138.696 181.109L138.492 181.489C138.187 181.283 137.825 181.177 137.457 181.186C136.816 181.186 136.534 181.433 136.534 181.771C136.534 182.721 138.816 182.003 138.816 183.355C138.816 183.968 138.281 184.362 137.365 184.362C136.849 184.378 136.342 184.225 135.922 183.926Z" fill="#103B5A"/>
<path d="M142.745 182.714H139.802C139.812 182.888 139.858 183.057 139.934 183.213C140.011 183.369 140.118 183.508 140.249 183.622C140.381 183.736 140.533 183.823 140.698 183.877C140.863 183.932 141.037 183.953 141.21 183.94C141.413 183.944 141.614 183.905 141.8 183.825C141.986 183.745 142.152 183.625 142.288 183.475L142.555 183.785C142.303 184.05 141.978 184.234 141.621 184.315C141.264 184.397 140.891 184.37 140.548 184.24C140.206 184.11 139.91 183.882 139.697 183.584C139.484 183.286 139.364 182.932 139.351 182.566C139.339 182.334 139.374 182.102 139.455 181.884C139.536 181.666 139.661 181.467 139.822 181.299C139.983 181.131 140.177 180.998 140.391 180.909C140.606 180.819 140.837 180.775 141.069 180.778C141.302 180.773 141.532 180.817 141.747 180.907C141.961 180.996 142.155 181.129 142.315 181.297C142.475 181.466 142.599 181.665 142.678 181.884C142.757 182.102 142.789 182.335 142.774 182.566C142.752 182.609 142.745 182.665 142.745 182.714ZM139.802 182.355H142.302C142.278 182.04 142.136 181.745 141.904 181.53C141.672 181.315 141.368 181.196 141.052 181.196C140.736 181.196 140.431 181.315 140.199 181.53C139.967 181.745 139.825 182.04 139.802 182.355Z" fill="#103B5A"/>
<path d="M150.647 180.806L149.316 184.327H148.872L147.766 181.44L146.654 184.327H146.203L144.879 180.806H145.351L146.45 183.799L147.583 180.806H147.992L149.118 183.799L150.238 180.806H150.647Z" fill="#103B5A"/>
<path d="M153.914 182.144V184.327H153.464V183.778C153.331 183.973 153.149 184.131 152.937 184.233C152.724 184.336 152.488 184.38 152.252 184.362C151.457 184.362 150.964 183.947 150.964 183.334C150.964 182.721 151.316 182.341 152.323 182.341H153.442V182.123C153.442 181.524 153.104 181.193 152.442 181.193C152.016 181.189 151.602 181.336 151.273 181.609L151.062 181.257C151.462 180.939 151.96 180.77 152.471 180.778C152.66 180.748 152.854 180.762 153.038 180.818C153.221 180.875 153.389 180.973 153.529 181.105C153.668 181.237 153.776 181.4 153.843 181.58C153.909 181.76 153.934 181.953 153.914 182.144ZM153.442 183.271V182.665H152.337C151.633 182.665 151.435 182.933 151.435 183.292C151.435 183.651 151.759 183.961 152.323 183.961C152.558 183.975 152.792 183.917 152.992 183.793C153.193 183.67 153.35 183.487 153.442 183.271Z" fill="#103B5A"/>
<path d="M154.724 183.926L154.935 183.552C155.302 183.811 155.74 183.949 156.189 183.947C156.858 183.947 157.132 183.714 157.132 183.369C157.132 182.454 154.851 183.172 154.851 181.785C154.851 181.207 155.344 180.778 156.259 180.778C156.697 180.77 157.129 180.885 157.506 181.109L157.301 181.489C156.994 181.282 156.63 181.176 156.259 181.186C155.625 181.186 155.344 181.433 155.344 181.771C155.344 182.721 157.625 182.003 157.625 183.355C157.625 183.968 157.09 184.362 156.175 184.362C155.656 184.381 155.146 184.228 154.724 183.926Z" fill="#103B5A"/>
<path d="M159.752 183.926L159.963 183.552C160.33 183.811 160.768 183.949 161.217 183.947C161.921 183.947 162.16 183.714 162.16 183.369C162.16 182.454 159.879 183.172 159.879 181.785C159.879 181.207 160.372 180.778 161.287 180.778C161.723 180.77 162.153 180.885 162.527 181.109L162.322 181.489C162.017 181.283 161.655 181.177 161.287 181.186C160.646 181.186 160.365 181.433 160.365 181.771C160.365 182.721 162.653 182.003 162.653 183.355C162.653 183.968 162.111 184.362 161.196 184.362C160.68 184.38 160.172 184.226 159.752 183.926Z" fill="#103B5A"/>
<path d="M166.689 180.806V184.327H166.231V183.686C166.103 183.907 165.918 184.09 165.695 184.214C165.471 184.338 165.219 184.399 164.963 184.39C164.761 184.409 164.557 184.383 164.366 184.313C164.175 184.244 164.002 184.132 163.86 183.987C163.717 183.842 163.609 183.667 163.543 183.475C163.477 183.283 163.454 183.078 163.477 182.876V180.834H163.956V182.827C163.956 183.581 164.344 183.961 165.013 183.961C165.179 183.969 165.346 183.941 165.501 183.878C165.655 183.816 165.795 183.72 165.909 183.598C166.023 183.476 166.109 183.33 166.161 183.172C166.213 183.013 166.229 182.845 166.21 182.679V180.834L166.689 180.806Z" fill="#103B5A"/>
<path d="M167.668 182.567C167.659 182.328 167.701 182.09 167.789 181.868C167.878 181.646 168.011 181.444 168.181 181.276C168.351 181.108 168.554 180.977 168.777 180.892C169 180.806 169.239 180.767 169.477 180.778C169.754 180.757 170.031 180.812 170.279 180.936C170.527 181.06 170.736 181.248 170.886 181.482L170.534 181.721C170.419 181.557 170.264 181.423 170.085 181.332C169.906 181.241 169.707 181.196 169.505 181.2C169.194 181.271 168.916 181.446 168.717 181.695C168.518 181.945 168.41 182.254 168.41 182.574C168.41 182.893 168.518 183.202 168.717 183.452C168.916 183.701 169.194 183.876 169.505 183.947C169.706 183.953 169.905 183.909 170.084 183.819C170.264 183.73 170.418 183.597 170.534 183.433L170.886 183.672C170.734 183.904 170.524 184.091 170.277 184.215C170.029 184.338 169.753 184.394 169.477 184.376C169.237 184.386 168.997 184.346 168.773 184.259C168.549 184.171 168.346 184.038 168.175 183.868C168.005 183.698 167.872 183.495 167.785 183.271C167.698 183.047 167.658 182.807 167.668 182.567Z" fill="#103B5A"/>
<path d="M171.407 182.567C171.4 182.327 171.442 182.089 171.531 181.867C171.62 181.645 171.755 181.444 171.925 181.276C172.096 181.108 172.299 180.977 172.522 180.891C172.746 180.806 172.985 180.767 173.224 180.778C173.5 180.757 173.777 180.812 174.025 180.936C174.273 181.06 174.483 181.248 174.632 181.482L174.273 181.721C174.16 181.556 174.007 181.422 173.829 181.331C173.65 181.24 173.452 181.195 173.252 181.2C172.941 181.271 172.663 181.446 172.464 181.695C172.265 181.945 172.156 182.254 172.156 182.574C172.156 182.893 172.265 183.202 172.464 183.452C172.663 183.701 172.941 183.876 173.252 183.947C173.451 183.954 173.65 183.91 173.828 183.82C174.007 183.731 174.159 183.597 174.273 183.433L174.632 183.672C174.481 183.904 174.27 184.091 174.023 184.215C173.775 184.338 173.5 184.394 173.224 184.376C172.983 184.386 172.743 184.346 172.518 184.259C172.294 184.172 172.09 184.039 171.919 183.869C171.749 183.699 171.615 183.495 171.527 183.271C171.439 183.047 171.398 182.807 171.407 182.567Z" fill="#103B5A"/>
<path d="M178.505 182.714H175.562C175.571 182.888 175.616 183.058 175.692 183.214C175.769 183.371 175.876 183.51 176.007 183.624C176.139 183.738 176.291 183.825 176.457 183.879C176.622 183.934 176.797 183.954 176.97 183.94C177.173 183.944 177.374 183.905 177.56 183.825C177.745 183.745 177.912 183.625 178.048 183.475L178.322 183.785C178.069 184.049 177.743 184.233 177.386 184.313C177.029 184.394 176.656 184.367 176.314 184.237C175.971 184.108 175.675 183.88 175.461 183.583C175.247 183.286 175.125 182.932 175.111 182.566C175.098 182.334 175.134 182.102 175.215 181.884C175.296 181.666 175.421 181.467 175.582 181.299C175.743 181.131 175.937 180.998 176.151 180.909C176.366 180.819 176.597 180.775 176.829 180.778C177.062 180.773 177.293 180.817 177.508 180.907C177.722 180.996 177.916 181.129 178.077 181.297C178.238 181.465 178.362 181.665 178.442 181.883C178.521 182.102 178.555 182.334 178.541 182.566C178.512 182.609 178.505 182.665 178.505 182.714ZM175.562 182.355H178.055C178.055 182.025 177.923 181.708 177.69 181.474C177.456 181.24 177.139 181.109 176.808 181.109C176.478 181.109 176.161 181.24 175.927 181.474C175.693 181.708 175.562 182.025 175.562 182.355Z" fill="#103B5A"/>
<path d="M178.991 183.926L179.209 183.552C179.575 183.814 180.014 183.952 180.463 183.947C181.132 183.947 181.407 183.714 181.407 183.369C181.407 182.454 179.118 183.172 179.118 181.785C179.118 181.207 179.618 180.778 180.526 180.778C180.964 180.77 181.396 180.885 181.773 181.109L181.569 181.489C181.26 181.283 180.897 181.178 180.526 181.186C179.892 181.186 179.611 181.433 179.611 181.771C179.611 182.721 181.892 182.003 181.892 183.355C181.892 183.968 181.357 184.362 180.442 184.362C179.923 184.379 179.414 184.226 178.991 183.926Z" fill="#103B5A"/>
<path d="M182.266 183.926L182.484 183.552C182.849 183.814 183.288 183.952 183.738 183.947C184.407 183.947 184.681 183.714 184.681 183.369C184.681 182.454 182.392 183.172 182.392 181.785C182.392 181.207 182.892 180.778 183.801 180.778C184.239 180.77 184.671 180.885 185.047 181.109L184.843 181.489C184.535 181.283 184.171 181.178 183.801 181.186C183.167 181.186 182.885 181.433 182.885 181.771C182.885 182.721 185.167 182.003 185.167 183.355C185.167 183.968 184.632 184.362 183.716 184.362C183.198 184.379 182.689 184.226 182.266 183.926Z" fill="#103B5A"/>
<path d="M186.575 180.391V180.806H187.66V181.207H186.59V184.327H186.111V181.207H185.491V180.806H186.118V180.369C186.105 180.228 186.125 180.085 186.174 179.951C186.224 179.818 186.302 179.697 186.404 179.598C186.505 179.498 186.628 179.422 186.762 179.375C186.896 179.329 187.04 179.312 187.181 179.327C187.434 179.318 187.682 179.395 187.885 179.546L187.723 179.905C187.577 179.784 187.392 179.721 187.202 179.729C186.787 179.729 186.575 179.954 186.575 180.391Z" fill="#103B5A"/>
<path d="M191.477 180.806V184.327H191.019V183.686C190.892 183.907 190.706 184.09 190.483 184.214C190.26 184.338 190.007 184.399 189.752 184.39C189.549 184.409 189.345 184.383 189.154 184.313C188.963 184.244 188.79 184.132 188.648 183.987C188.506 183.842 188.398 183.667 188.331 183.475C188.265 183.283 188.243 183.078 188.266 182.876V180.834H188.745V182.827C188.745 183.581 189.132 183.961 189.801 183.961C189.968 183.969 190.134 183.941 190.289 183.878C190.444 183.816 190.583 183.72 190.697 183.598C190.811 183.476 190.897 183.33 190.949 183.172C191.001 183.013 191.018 182.845 190.998 182.679V180.834L191.477 180.806Z" fill="#103B5A"/>
<path d="M192.808 179.362H193.287V184.327H192.808V179.362Z" fill="#103B5A"/>
<path d="M118.936 162.109H115.957V160.701H123.577V162.109H120.598V169.679H118.936V162.109Z" fill="#30C182"/>
<path d="M131.415 165.764V169.694H129.816V165.975C129.816 164.757 129.211 164.166 128.189 164.166C127.049 164.166 126.274 164.87 126.274 166.229V169.694H124.675V160.166H126.274V163.651C126.574 163.357 126.931 163.128 127.324 162.978C127.716 162.827 128.136 162.76 128.556 162.778C130.196 162.75 131.415 163.687 131.415 165.764Z" fill="#30C182"/>
<path d="M139.182 165.665V169.679H137.675V168.841C137.423 169.165 137.093 169.419 136.716 169.58C136.34 169.741 135.928 169.804 135.52 169.764C133.957 169.764 132.964 168.905 132.964 167.715C132.964 166.525 133.739 165.68 135.816 165.68H137.605V165.574C137.605 164.637 137.041 164.088 135.901 164.088C135.137 164.077 134.392 164.326 133.788 164.792L133.161 163.63C134.009 163.042 135.024 162.743 136.055 162.778C138.041 162.75 139.182 163.687 139.182 165.665ZM137.605 167.532V166.743H135.95C134.858 166.743 134.541 167.151 134.541 167.651C134.541 168.151 135.034 168.602 135.851 168.602C136.219 168.633 136.588 168.546 136.903 168.353C137.218 168.161 137.464 167.873 137.605 167.532Z" fill="#30C182"/>
<path d="M147.978 165.764V169.694H146.372V165.975C146.372 164.757 145.773 164.166 144.745 164.166C143.605 164.166 142.837 164.87 142.837 166.229V169.694H141.231V162.842H142.759V163.729C143.057 163.404 143.423 163.149 143.831 162.982C144.239 162.815 144.679 162.741 145.119 162.764C146.759 162.75 147.978 163.687 147.978 165.764Z" fill="#30C182"/>
<path d="M152.809 166.743L151.618 167.877V169.687H150.013V160.166H151.618V165.905L154.935 162.828H156.858L153.999 165.701L157.125 169.68H155.21L152.809 166.743Z" fill="#30C182"/>
<path d="M168.111 162.828L164.907 170.229C164.28 171.778 163.407 172.25 162.266 172.25C161.601 172.264 160.952 172.042 160.435 171.623L161.076 170.447C161.393 170.749 161.814 170.918 162.252 170.919C162.815 170.919 163.153 170.651 163.456 169.968L163.576 169.701L160.59 162.828H162.252L164.407 167.891L166.576 162.828H168.111Z" fill="#30C182"/>
<path d="M168.35 166.25C168.325 165.523 168.518 164.806 168.903 164.189C169.289 163.573 169.85 163.086 170.514 162.79C171.178 162.495 171.916 162.405 172.632 162.531C173.348 162.658 174.009 162.996 174.532 163.501C175.055 164.007 175.414 164.657 175.565 165.368C175.715 166.079 175.65 166.819 175.377 167.493C175.104 168.167 174.636 168.744 174.032 169.15C173.429 169.556 172.718 169.772 171.991 169.771C171.516 169.797 171.041 169.725 170.596 169.559C170.15 169.393 169.743 169.137 169.401 168.806C169.06 168.476 168.79 168.078 168.609 167.638C168.428 167.198 168.34 166.726 168.35 166.25ZM174.033 166.25C174.018 165.851 173.886 165.466 173.654 165.142C173.422 164.818 173.099 164.569 172.727 164.427C172.354 164.284 171.948 164.254 171.558 164.341C171.169 164.427 170.814 164.626 170.536 164.913C170.259 165.2 170.072 165.562 169.999 165.954C169.926 166.346 169.97 166.751 170.125 167.118C170.279 167.486 170.539 167.8 170.871 168.021C171.203 168.242 171.592 168.361 171.991 168.363C172.267 168.369 172.541 168.318 172.797 168.213C173.052 168.108 173.283 167.952 173.475 167.753C173.666 167.555 173.815 167.319 173.911 167.06C174.007 166.801 174.049 166.526 174.033 166.25Z" fill="#30C182"/>
<path d="M183.815 162.828V169.679H182.287V168.806C182.013 169.119 181.673 169.366 181.292 169.532C180.911 169.698 180.498 169.777 180.083 169.764C178.322 169.764 177.132 168.806 177.132 166.743V162.828H178.738V166.525C178.738 167.764 179.322 168.356 180.336 168.356C181.35 168.356 182.209 167.651 182.209 166.292V162.828H183.815Z" fill="#30C182"/>
<path d="M185.618 168.764C185.619 168.631 185.646 168.499 185.699 168.376C185.752 168.254 185.829 168.143 185.926 168.051C186.023 167.959 186.137 167.888 186.262 167.841C186.387 167.794 186.52 167.772 186.653 167.778C186.916 167.778 187.169 167.883 187.355 168.069C187.541 168.255 187.646 168.508 187.646 168.771C187.646 169.034 187.541 169.287 187.355 169.473C187.169 169.659 186.916 169.764 186.653 169.764C186.519 169.769 186.385 169.746 186.259 169.698C186.134 169.65 186.02 169.577 185.923 169.484C185.826 169.391 185.75 169.279 185.697 169.155C185.645 169.031 185.618 168.898 185.618 168.764ZM185.709 160.701H187.604L187.287 166.701H186.012L185.709 160.701Z" fill="#30C182"/>
<path d="M153.111 147.271C163.293 147.271 171.548 139.017 171.548 128.835C171.548 118.653 163.293 110.399 153.111 110.399C142.929 110.399 134.675 118.653 134.675 128.835C134.675 139.017 142.929 147.271 153.111 147.271Z" fill="#30C182"/>
<path d="M162.189 121.054C162.421 121.244 158.977 125.878 154.499 131.399L151.78 134.694L151.407 135.145L151.013 134.737C147.492 131.124 145.119 128.448 145.288 128.279C145.457 128.11 148.14 130.497 151.745 133.997L150.985 134.075L153.647 130.744C158.125 125.187 161.949 120.864 162.189 121.054Z" fill="white"/>
<path d="M179.301 121.399C178.752 119.462 176.238 119.652 176.238 119.652L176.301 120.997C177.759 120.744 178.66 122.448 178.66 122.448L179.301 121.399Z" fill="#30C182"/>
<path d="M125.894 125.469C125.351 123.533 122.83 123.716 122.83 123.716L122.901 125.068C124.358 124.814 125.26 126.518 125.26 126.518L125.894 125.469Z" fill="#E0E0E0"/>
<path d="M155.309 98.6739C158.231 99.5612 160.048 96.1951 160.048 96.1951L158.273 95.181C157.4 97.2444 154.485 97.0049 154.485 97.0049L155.309 98.6739Z" fill="#E0E0E0"/>
<path d="M139.105 102.301C137.746 102.449 137.584 104.153 137.584 104.153L138.492 104.258C138.492 103.258 139.738 102.85 139.738 102.85L139.105 102.301Z" fill="#30C182"/>
<path d="M195.118 114.779C195.315 113.427 193.709 112.843 193.709 112.843L193.378 113.695C194.35 113.941 194.442 115.251 194.442 115.251L195.118 114.779Z" fill="#E0E0E0"/>
<path d="M147.034 84.5052C147.231 83.1531 145.626 82.5686 145.626 82.5686L145.295 83.4277C146.266 83.6742 146.358 84.977 146.358 84.977L147.034 84.5052Z" fill="#30C182"/>
<path d="M113.457 106.315C113.218 108.427 116.021 108.948 116.021 108.948L116.528 107.54C114.845 107.385 114.605 105.427 114.605 105.427L113.457 106.315Z" fill="#30C182"/>
<path d="M175.963 98.6317C177.329 98.7092 177.766 97.0543 177.766 97.0543L176.886 96.8008C176.724 97.7867 175.428 97.9909 175.428 97.9909L175.963 98.6317Z" fill="#30C182"/>
<path d="M183.421 104.195C183.054 104.298 182.673 104.333 182.294 104.301C181.915 104.334 181.533 104.298 181.167 104.195C181.911 104.045 182.677 104.045 183.421 104.195Z" fill="#E0E0E0"/>
<path d="M184.618 101.132C184.759 101.886 184.759 102.659 184.618 103.413C184.467 102.66 184.467 101.885 184.618 101.132Z" fill="#E0E0E0"/>
<path d="M185.885 104.118C186.252 104.015 186.633 103.979 187.012 104.012C187.391 103.978 187.773 104.014 188.139 104.118C187.395 104.268 186.629 104.268 185.885 104.118Z" fill="#E0E0E0"/>
<path d="M184.695 107.188C184.545 106.432 184.545 105.655 184.695 104.899C184.836 105.656 184.836 106.431 184.695 107.188Z" fill="#E0E0E0"/>
<path d="M186.512 105.906C186.47 105.941 186.252 105.758 186.026 105.498C185.801 105.237 185.667 104.984 185.709 104.948C185.752 104.913 185.977 105.089 186.195 105.357C186.414 105.624 186.561 105.829 186.512 105.906Z" fill="#E0E0E0"/>
<path d="M186.407 102.385C186.449 102.434 186.301 102.653 186.069 102.885C185.836 103.118 185.618 103.272 185.576 103.23C185.533 103.188 185.681 102.963 185.914 102.73C186.146 102.498 186.364 102.385 186.407 102.385Z" fill="#E0E0E0"/>
<path d="M183.829 103.279C183.787 103.329 183.576 103.216 183.357 103.033C183.139 102.85 182.998 102.667 183.033 102.625C183.069 102.582 183.28 102.688 183.498 102.864C183.716 103.04 183.864 103.237 183.829 103.279Z" fill="#E0E0E0"/>
<path d="M183.723 104.815C183.773 104.85 183.639 105.068 183.428 105.301C183.216 105.533 183.012 105.681 182.97 105.639C182.928 105.596 183.054 105.378 183.266 105.153C183.477 104.927 183.681 104.772 183.723 104.815Z" fill="#E0E0E0"/>
<path d="M122.07 97.9134C121.326 98.0636 120.56 98.0636 119.816 97.9134C120.182 97.8107 120.564 97.7749 120.943 97.8078C121.322 97.7742 121.704 97.8099 122.07 97.9134Z" fill="#30C182"/>
<path d="M123.267 94.8501C123.417 95.6056 123.417 96.3833 123.267 97.1388C123.117 96.3833 123.117 95.6056 123.267 94.8501Z" fill="#30C182"/>
<path d="M124.542 97.843C125.285 97.6928 126.051 97.6928 126.795 97.843C126.051 97.9933 125.285 97.9933 124.542 97.843Z" fill="#30C182"/>
<path d="M123.345 100.906C123.194 100.153 123.194 99.3778 123.345 98.6246C123.495 99.3778 123.495 100.153 123.345 100.906Z" fill="#30C182"/>
<path d="M125.168 99.5684C125.119 99.6106 124.901 99.4275 124.682 99.1599C124.464 98.8923 124.316 98.6529 124.365 98.6106C124.415 98.5684 124.626 98.7585 124.851 99.0191C125.077 99.2796 125.211 99.5684 125.168 99.5684Z" fill="#30C182"/>
<path d="M125.063 96.1177C125.105 96.1599 124.95 96.3853 124.725 96.6177C124.499 96.8501 124.274 96.9979 124.232 96.9557C124.19 96.9134 124.337 96.6951 124.57 96.4627C124.802 96.2304 125.021 96.0473 125.063 96.1177Z" fill="#30C182"/>
<path d="M122.478 97.005C122.443 97.0472 122.232 96.9416 122.013 96.7585C121.795 96.5754 121.647 96.3923 121.689 96.343C121.732 96.2937 121.936 96.4064 122.154 96.5895C122.373 96.7726 122.52 96.9557 122.478 97.005Z" fill="#30C182"/>
<path d="M122.38 98.5331C122.422 98.5753 122.288 98.7936 122.084 99.026C121.88 99.2584 121.668 99.4063 121.619 99.3641C121.57 99.3218 121.711 99.1035 121.915 98.8782C122.119 98.6528 122.33 98.4908 122.38 98.5331Z" fill="#30C182"/>
<path d="M200.012 68.6183C198.359 68.7992 196.695 68.8604 195.033 68.8014C193.374 68.8606 191.712 68.7995 190.061 68.6183C191.712 68.4328 193.374 68.3716 195.033 68.4352C196.695 68.3718 198.359 68.433 200.012 68.6183Z" fill="#103B5A"/>
<path d="M200.012 70.6957C198.359 70.881 196.695 70.9422 195.033 70.8788C193.374 70.9423 191.712 70.8811 190.061 70.6957C191.712 70.5145 193.374 70.4533 195.033 70.5126C196.695 70.4536 198.359 70.5148 200.012 70.6957Z" fill="#103B5A"/>
<path d="M200.012 72.7591C198.359 72.9443 196.695 73.0055 195.033 72.9422C193.374 73.0057 191.712 72.9445 190.061 72.7591C191.712 72.5779 193.374 72.5167 195.033 72.576C196.695 72.517 198.359 72.5781 200.012 72.7591Z" fill="#103B5A"/>
<path d="M141.814 243.005L165.003 243.187L165.233 213.914L142.044 213.732L141.814 243.005Z" fill="#EBEBEB"/>
<path d="M156.154 214.784L155.738 243.122L152.076 243.093L152.865 214.756L156.154 214.784Z" fill="#FAFAFA"/>
<path d="M128.718 214.566L142.02 214.671L165.21 214.855L141.999 217.904L141.802 243.016L128.499 242.91L128.718 214.566Z" fill="#E0E0E0"/>
<path d="M135.964 214.622L135.436 242.967L131.485 242.931L132.133 214.594L135.964 214.622Z" fill="#FAFAFA"/>
<path d="M137.803 203.998C137.778 204.014 137.779 204.006 137.803 203.998V203.998Z" fill="#E0E0E0"/>
<path d="M146.013 206.207C145.95 205.841 147.682 205.298 150.386 204.503C151.941 204.058 153.465 203.512 154.949 202.869C155.302 202.727 155.635 202.543 155.942 202.32C156.048 202.228 156.097 202.151 156.083 202.158C156.069 202.165 156.083 202.263 156.048 202.214C156.005 202.074 155.951 201.937 155.886 201.806L155.548 201.101C155.34 200.667 155.105 200.245 154.844 199.841C154.611 199.48 154.334 199.148 154.02 198.855C153.873 198.72 153.718 198.596 153.555 198.482C153.423 198.39 153.282 198.315 153.133 198.256C152.912 198.154 152.663 198.132 152.428 198.193C152.126 198.29 151.847 198.451 151.611 198.665C150.408 199.668 149.343 200.826 148.442 202.108C146.886 204.32 146.478 206.045 146.09 205.989C145.921 205.989 145.795 205.496 145.858 204.643C145.973 203.441 146.312 202.271 146.858 201.193C147.652 199.575 148.727 198.11 150.034 196.869C150.503 196.41 151.065 196.057 151.682 195.834C152.426 195.577 153.234 195.577 153.978 195.834C154.316 195.956 154.64 196.117 154.942 196.313C155.219 196.488 155.481 196.685 155.724 196.904C156.21 197.339 156.636 197.836 156.992 198.383C157.319 198.884 157.608 199.409 157.858 199.953L158.196 200.7C158.358 201.037 158.474 201.395 158.541 201.763C158.627 202.29 158.536 202.83 158.28 203.298C158.069 203.676 157.775 204.001 157.421 204.249C156.932 204.583 156.398 204.849 155.837 205.038C154.194 205.628 152.491 206.037 150.759 206.256C147.858 206.65 146.055 206.545 146.013 206.207Z" fill="#EBEBEB"/>
<path d="M124.512 214.521L158.595 214.789L158.671 205.099L124.588 204.831L124.512 214.521Z" fill="#E0E0E0"/>
<path d="M137.041 214.617L167.849 214.859L167.925 205.17L137.117 204.928L137.041 214.617Z" fill="#EBEBEB"/>
<path d="M158.463 205.108L158.245 214.84L154.654 214.77L154.907 205.08L158.463 205.108Z" fill="#FAFAFA"/>
<path d="M132.936 204.96L132.584 214.608L128.633 214.573L128.844 204.876L132.936 204.96Z" fill="#FAFAFA"/>
<path d="M166.937 242.472L180.077 242.575L180.208 225.992L167.067 225.888L166.937 242.472Z" fill="#EBEBEB"/>
<path d="M175.055 226.481L174.822 242.544L172.745 242.53L173.188 226.467L175.055 226.481Z" fill="#FAFAFA"/>
<path d="M159.506 226.361L167.048 226.418L180.188 226.523L167.034 228.256L166.921 242.481L159.386 242.424L159.506 226.361Z" fill="#E0E0E0"/>
<path d="M163.611 226.397L163.315 242.453L161.076 242.439L161.442 226.375L163.611 226.397Z" fill="#FAFAFA"/>
<path d="M169.576 221.502C169.576 221.749 168.717 222.045 167.21 222.207C166.286 222.28 165.356 222.204 164.456 221.981C164.03 221.879 163.653 221.63 163.393 221.277C163.24 221.034 163.155 220.754 163.146 220.467C163.145 220.264 163.166 220.06 163.21 219.862C163.33 219.282 163.502 218.714 163.724 218.164C163.86 217.855 164.028 217.56 164.224 217.284C164.451 216.961 164.738 216.684 165.069 216.467C165.276 216.336 165.507 216.247 165.749 216.206C165.991 216.165 166.238 216.172 166.477 216.228C166.835 216.332 167.165 216.515 167.442 216.763C168.155 217.372 168.743 218.114 169.174 218.946C169.879 220.354 169.78 221.404 169.548 221.439C169.315 221.474 168.935 220.671 168.083 219.65C167.591 219.061 167.026 218.538 166.4 218.094C166.307 218.018 166.199 217.963 166.083 217.932L166.034 217.967C165.916 218.064 165.814 218.178 165.731 218.305C165.613 218.475 165.513 218.656 165.435 218.847C165.254 219.306 165.106 219.777 164.991 220.256L164.949 220.418H164.836H164.731C164.681 220.418 164.674 220.418 164.731 220.418C164.779 220.388 164.822 220.35 164.858 220.305L164.9 220.263C164.948 220.297 165 220.326 165.055 220.347C165.79 220.594 166.547 220.771 167.315 220.876C168.653 221.08 169.576 221.242 169.576 221.502Z" fill="#E0E0E0"/>
<path d="M169.294 221.629C169.245 221.347 170.224 220.974 171.731 220.474C172.593 220.199 173.439 219.877 174.266 219.509C174.444 219.434 174.612 219.337 174.766 219.221C174.808 219.186 174.808 219.157 174.766 219.221C174.734 219.281 174.717 219.349 174.717 219.418L174.456 218.869C174.341 218.626 174.212 218.391 174.069 218.164C173.952 217.977 173.81 217.806 173.646 217.657C173.527 217.534 173.386 217.434 173.231 217.362C173.16 217.337 173.083 217.337 173.012 217.362C172.87 217.399 172.739 217.471 172.632 217.573C171.961 218.118 171.358 218.742 170.836 219.432C169.928 220.622 169.632 221.58 169.343 221.545C169.055 221.509 168.879 220.376 169.611 218.728C170.049 217.776 170.66 216.914 171.414 216.186C171.702 215.9 172.048 215.679 172.428 215.538C172.902 215.372 173.418 215.372 173.893 215.538C174.106 215.608 174.309 215.705 174.498 215.826C174.667 215.937 174.827 216.059 174.977 216.193C175.268 216.452 175.524 216.748 175.738 217.073C175.925 217.37 176.094 217.678 176.245 217.995L176.435 218.425C176.54 218.648 176.614 218.885 176.653 219.129C176.71 219.485 176.645 219.85 176.47 220.164C176.331 220.408 176.141 220.62 175.914 220.784C175.618 220.985 175.296 221.144 174.956 221.256C174.006 221.586 173.02 221.804 172.019 221.904C170.372 222.016 169.35 221.89 169.294 221.629Z" fill="#E0E0E0"/>
<path d="M157.123 226.339L176.439 226.491L176.482 220.998L157.166 220.846L157.123 226.339Z" fill="#E0E0E0"/>
<path d="M164.236 226.389L181.693 226.526L181.736 221.034L164.279 220.897L164.236 226.389Z" fill="#EBEBEB"/>
<path d="M176.364 221.002L176.245 226.516L174.203 226.474L174.35 220.988L176.364 221.002Z" fill="#FAFAFA"/>
<path d="M161.9 220.918L161.703 226.382L159.463 226.368L159.583 220.869L161.9 220.918Z" fill="#FAFAFA"/>
<path d="M273.135 256.473C274.196 256.98 275.143 257.694 275.921 258.575C276.699 259.456 277.292 260.485 277.663 261.6C278.393 263.84 278.598 266.218 278.262 268.551C277.755 273.058 275.191 277.607 272.438 281.226C268.642 277.917 267.769 272.135 267.508 269.177C267.1 264.501 269.198 255.797 273.142 256.502" fill="#30C182"/>
<path d="M276.846 288.649C276.587 287.36 276.674 286.026 277.097 284.782C277.52 283.538 278.264 282.428 279.255 281.564C280.258 280.718 281.419 280.08 282.672 279.688C283.925 279.296 285.243 279.158 286.55 279.283C287.761 279.374 289.064 279.726 289.754 280.691C290.05 281.176 290.211 281.732 290.22 282.301C290.229 282.869 290.085 283.429 289.804 283.923C289.23 284.905 288.406 285.716 287.416 286.276C284.128 288.339 280.564 289.733 276.853 288.621" fill="#30C182"/>
<path d="M271.98 302.465C271.998 302.155 272.043 301.846 272.114 301.543C272.233 300.888 272.388 300.05 272.572 299.036C272.997 296.25 273.87 293.551 275.156 291.043C276.495 288.537 278.475 286.433 280.895 284.945C281.631 284.509 282.416 284.162 283.233 283.909C283.522 283.811 283.754 283.776 283.937 283.733C284.121 283.691 284.177 283.691 284.177 283.733C282.301 284.341 280.565 285.317 279.071 286.603C277.576 287.89 276.353 289.461 275.473 291.226C274.206 293.71 273.316 296.368 272.832 299.113C272.6 300.163 272.41 301.015 272.269 301.592C272.198 301.891 272.101 302.183 271.98 302.465Z" fill="#103B5A"/>
<path d="M272.114 263.241C272.146 263.375 272.163 263.512 272.163 263.649C272.163 263.945 272.205 264.353 272.234 264.811C272.283 265.818 272.346 267.276 272.403 269.086C272.515 272.698 272.607 277.691 272.586 283.17C272.565 288.649 272.431 293.677 272.276 297.289C272.205 299.099 272.135 300.557 272.072 301.564C272.036 302.043 272.015 302.423 271.994 302.726C271.973 303.029 271.994 302.726 271.994 302.726C272.043 302.324 271.924 302.986 271.924 302.726C271.924 302.465 271.924 302.022 271.924 301.557C271.924 300.508 271.98 299.057 272.022 297.282C272.114 293.67 272.212 288.684 272.241 283.198C272.269 277.712 272.205 272.698 272.149 269.114C272.149 267.339 272.1 265.882 272.079 264.832C272.079 264.353 272.079 263.973 272.079 263.67C272.08 263.527 272.092 263.383 272.114 263.241Z" fill="#103B5A"/>
<path d="M270.283 291.388C269.823 288.657 268.719 286.075 267.064 283.855C265.408 281.635 263.248 279.841 260.762 278.621C259.494 278.015 257.84 277.614 256.797 278.557C255.755 279.501 255.98 281.198 256.494 282.515C257.61 285.236 259.506 287.566 261.944 289.211C264.381 290.856 267.251 291.744 270.191 291.761" fill="#30C182"/>
<path d="M261.375 282.895C261.656 282.985 261.927 283.103 262.184 283.247C262.497 283.39 262.801 283.552 263.093 283.733C263.49 283.947 263.876 284.182 264.248 284.437C264.71 284.745 265.154 285.079 265.579 285.437C266.073 285.837 266.543 286.265 266.987 286.719C268.009 287.762 268.909 288.917 269.67 290.163C270.408 291.422 270.999 292.761 271.431 294.156C271.618 294.763 271.768 295.382 271.881 296.008C271.989 296.55 272.064 297.098 272.107 297.648C272.177 298.156 272.149 298.613 272.17 299.015C272.193 299.359 272.193 299.705 272.17 300.05C272.165 300.343 272.132 300.636 272.072 300.923C271.994 300.923 272.121 299.67 271.903 297.677C271.844 297.133 271.757 296.592 271.642 296.057C271.536 295.48 271.353 294.874 271.17 294.24C270.73 292.876 270.139 291.565 269.41 290.332C268.664 289.107 267.788 287.966 266.797 286.93C266.365 286.477 265.909 286.047 265.431 285.642C264.994 285.247 264.544 284.937 264.142 284.628C262.487 283.48 261.339 282.959 261.375 282.895Z" fill="#103B5A"/>
</svg>
